<mxfile host="app.diagrams.net" agent="Mozilla/5.0 (Windows NT 10.0; Win64; x64) AppleWebKit/537.36 (KHTML, like Gecko) Chrome/129.0.0.0 Safari/537.36" version="24.7.17">
  <diagram name="Página-1" id="XO3eZ9C-r6yYmrWrBdsj">
    <mxGraphModel grid="1" page="1" gridSize="10" guides="1" tooltips="1" connect="1" arrows="1" fold="1" pageScale="1" pageWidth="827" pageHeight="1169" math="0" shadow="0">
      <root>
        <mxCell id="0" />
        <mxCell id="1" parent="0" />
        <mxCell id="qeE2tE1I2EDo8bNzyss_-1" value="" style="endArrow=none;html=1;rounded=0;" edge="1" parent="1">
          <mxGeometry width="50" height="50" relative="1" as="geometry">
            <mxPoint x="220" y="250" as="sourcePoint" />
            <mxPoint x="1360" y="250" as="targetPoint" />
          </mxGeometry>
        </mxCell>
        <mxCell id="qeE2tE1I2EDo8bNzyss_-2" value="" style="endArrow=none;html=1;rounded=0;" edge="1" parent="1">
          <mxGeometry width="50" height="50" relative="1" as="geometry">
            <mxPoint x="360" y="190" as="sourcePoint" />
            <mxPoint x="360" y="1650" as="targetPoint" />
          </mxGeometry>
        </mxCell>
        <mxCell id="qeE2tE1I2EDo8bNzyss_-3" value="" style="endArrow=none;html=1;rounded=0;" edge="1" parent="1">
          <mxGeometry width="50" height="50" relative="1" as="geometry">
            <mxPoint x="730" y="200" as="sourcePoint" />
            <mxPoint x="730" y="1650" as="targetPoint" />
          </mxGeometry>
        </mxCell>
        <mxCell id="qeE2tE1I2EDo8bNzyss_-4" value="" style="endArrow=none;html=1;rounded=0;" edge="1" parent="1">
          <mxGeometry width="50" height="50" relative="1" as="geometry">
            <mxPoint x="1028.89" y="175" as="sourcePoint" />
            <mxPoint x="1030" y="1650" as="targetPoint" />
          </mxGeometry>
        </mxCell>
        <mxCell id="qeE2tE1I2EDo8bNzyss_-5" value="" style="endArrow=none;html=1;rounded=0;" edge="1" parent="1">
          <mxGeometry width="50" height="50" relative="1" as="geometry">
            <mxPoint x="1340" y="200" as="sourcePoint" />
            <mxPoint x="1340" y="1650" as="targetPoint" />
          </mxGeometry>
        </mxCell>
        <mxCell id="qeE2tE1I2EDo8bNzyss_-6" value="Usuario" style="shape=umlActor;verticalLabelPosition=bottom;verticalAlign=top;html=1;outlineConnect=0;" vertex="1" parent="1">
          <mxGeometry x="270" y="140" width="50" height="90" as="geometry" />
        </mxCell>
        <mxCell id="qeE2tE1I2EDo8bNzyss_-7" value="Interfaz" style="text;html=1;align=center;verticalAlign=middle;resizable=0;points=[];autosize=1;strokeColor=none;fillColor=none;" vertex="1" parent="1">
          <mxGeometry x="490" y="200" width="60" height="30" as="geometry" />
        </mxCell>
        <mxCell id="qeE2tE1I2EDo8bNzyss_-8" value="Sistema" style="text;html=1;align=center;verticalAlign=middle;resizable=0;points=[];autosize=1;strokeColor=none;fillColor=none;" vertex="1" parent="1">
          <mxGeometry x="760" y="200" width="70" height="30" as="geometry" />
        </mxCell>
        <mxCell id="qeE2tE1I2EDo8bNzyss_-9" value="Base de datos" style="text;html=1;align=center;verticalAlign=middle;resizable=0;points=[];autosize=1;strokeColor=none;fillColor=none;" vertex="1" parent="1">
          <mxGeometry x="1030" y="190" width="100" height="30" as="geometry" />
        </mxCell>
        <mxCell id="qeE2tE1I2EDo8bNzyss_-10" value="" style="points=[[0.145,0.145,0],[0.5,0,0],[0.855,0.145,0],[1,0.5,0],[0.855,0.855,0],[0.5,1,0],[0.145,0.855,0],[0,0.5,0]];shape=mxgraph.bpmn.event;html=1;verticalLabelPosition=bottom;labelBackgroundColor=#ffffff;verticalAlign=top;align=center;perimeter=ellipsePerimeter;outlineConnect=0;aspect=fixed;outline=standard;symbol=general;shadow=1;strokeColor=default;fontFamily=Helvetica;fontSize=12;fontColor=default;fillColor=#000000;" vertex="1" parent="1">
          <mxGeometry x="130" y="1005" width="50" height="50" as="geometry" />
        </mxCell>
        <mxCell id="qeE2tE1I2EDo8bNzyss_-11" value="" style="edgeStyle=orthogonalEdgeStyle;rounded=0;orthogonalLoop=1;jettySize=auto;html=1;" edge="1" parent="1" source="qeE2tE1I2EDo8bNzyss_-18" target="qeE2tE1I2EDo8bNzyss_-20">
          <mxGeometry relative="1" as="geometry" />
        </mxCell>
        <mxCell id="qeE2tE1I2EDo8bNzyss_-12" style="edgeStyle=orthogonalEdgeStyle;rounded=0;orthogonalLoop=1;jettySize=auto;html=1;exitX=1;exitY=0.5;exitDx=0;exitDy=0;entryX=0;entryY=0.5;entryDx=0;entryDy=0;" edge="1" parent="1" source="qeE2tE1I2EDo8bNzyss_-18" target="qeE2tE1I2EDo8bNzyss_-40">
          <mxGeometry relative="1" as="geometry" />
        </mxCell>
        <mxCell id="qeE2tE1I2EDo8bNzyss_-13" style="edgeStyle=orthogonalEdgeStyle;rounded=0;orthogonalLoop=1;jettySize=auto;html=1;exitX=1;exitY=0.5;exitDx=0;exitDy=0;entryX=0;entryY=0.5;entryDx=0;entryDy=0;" edge="1" parent="1" source="qeE2tE1I2EDo8bNzyss_-18" target="qeE2tE1I2EDo8bNzyss_-42">
          <mxGeometry relative="1" as="geometry" />
        </mxCell>
        <mxCell id="qeE2tE1I2EDo8bNzyss_-14" style="edgeStyle=orthogonalEdgeStyle;rounded=0;orthogonalLoop=1;jettySize=auto;html=1;exitX=1;exitY=0.5;exitDx=0;exitDy=0;entryX=0;entryY=0.5;entryDx=0;entryDy=0;" edge="1" parent="1" source="qeE2tE1I2EDo8bNzyss_-18" target="qeE2tE1I2EDo8bNzyss_-38">
          <mxGeometry relative="1" as="geometry" />
        </mxCell>
        <mxCell id="qeE2tE1I2EDo8bNzyss_-15" style="edgeStyle=orthogonalEdgeStyle;rounded=0;orthogonalLoop=1;jettySize=auto;html=1;exitX=1;exitY=0.5;exitDx=0;exitDy=0;entryX=0;entryY=0.5;entryDx=0;entryDy=0;" edge="1" parent="1" source="qeE2tE1I2EDo8bNzyss_-18" target="qeE2tE1I2EDo8bNzyss_-70">
          <mxGeometry relative="1" as="geometry" />
        </mxCell>
        <mxCell id="qeE2tE1I2EDo8bNzyss_-18" value="Iniciar sesión" style="rounded=0;whiteSpace=wrap;html=1;" vertex="1" parent="1">
          <mxGeometry x="225" y="305" width="120" height="60" as="geometry" />
        </mxCell>
        <mxCell id="qeE2tE1I2EDo8bNzyss_-19" style="edgeStyle=orthogonalEdgeStyle;rounded=0;orthogonalLoop=1;jettySize=auto;html=1;exitX=1;exitY=0.5;exitDx=0;exitDy=0;entryX=0;entryY=0.5;entryDx=0;entryDy=0;" edge="1" parent="1" source="qeE2tE1I2EDo8bNzyss_-20" target="qeE2tE1I2EDo8bNzyss_-44">
          <mxGeometry relative="1" as="geometry" />
        </mxCell>
        <mxCell id="qeE2tE1I2EDo8bNzyss_-20" value="Opción de &quot;Hacer consultas&quot;" style="rounded=0;whiteSpace=wrap;html=1;" vertex="1" parent="1">
          <mxGeometry x="390" y="305" width="120" height="60" as="geometry" />
        </mxCell>
        <mxCell id="qeE2tE1I2EDo8bNzyss_-21" style="edgeStyle=orthogonalEdgeStyle;rounded=0;orthogonalLoop=1;jettySize=auto;html=1;exitX=1;exitY=0.5;exitDx=0;exitDy=0;exitPerimeter=0;entryX=0;entryY=0.5;entryDx=0;entryDy=0;" edge="1" parent="1" source="qeE2tE1I2EDo8bNzyss_-22" target="qeE2tE1I2EDo8bNzyss_-18">
          <mxGeometry relative="1" as="geometry" />
        </mxCell>
        <mxCell id="qeE2tE1I2EDo8bNzyss_-22" value="" style="points=[[0.145,0.145,0],[0.5,0,0],[0.855,0.145,0],[1,0.5,0],[0.855,0.855,0],[0.5,1,0],[0.145,0.855,0],[0,0.5,0]];shape=mxgraph.bpmn.event;html=1;verticalLabelPosition=bottom;labelBackgroundColor=#ffffff;verticalAlign=top;align=center;perimeter=ellipsePerimeter;outlineConnect=0;aspect=fixed;outline=standard;symbol=general;shadow=1;strokeColor=default;fontFamily=Helvetica;fontSize=12;fontColor=default;fillColor=#000000;" vertex="1" parent="1">
          <mxGeometry x="100" y="310" width="50" height="50" as="geometry" />
        </mxCell>
        <mxCell id="qeE2tE1I2EDo8bNzyss_-23" style="edgeStyle=orthogonalEdgeStyle;rounded=0;orthogonalLoop=1;jettySize=auto;html=1;exitX=1;exitY=0.5;exitDx=0;exitDy=0;entryX=0.5;entryY=0;entryDx=0;entryDy=0;" edge="1" parent="1" source="qeE2tE1I2EDo8bNzyss_-24" target="qeE2tE1I2EDo8bNzyss_-36">
          <mxGeometry relative="1" as="geometry" />
        </mxCell>
        <mxCell id="qeE2tE1I2EDo8bNzyss_-24" value="Guardar datos" style="rounded=0;whiteSpace=wrap;html=1;" vertex="1" parent="1">
          <mxGeometry x="1075" y="390" width="120" height="60" as="geometry" />
        </mxCell>
        <mxCell id="qeE2tE1I2EDo8bNzyss_-25" style="edgeStyle=orthogonalEdgeStyle;rounded=0;orthogonalLoop=1;jettySize=auto;html=1;exitX=1;exitY=0.5;exitDx=0;exitDy=0;entryX=0;entryY=0.5;entryDx=0;entryDy=0;" edge="1" parent="1" source="qeE2tE1I2EDo8bNzyss_-27" target="qeE2tE1I2EDo8bNzyss_-46">
          <mxGeometry relative="1" as="geometry" />
        </mxCell>
        <mxCell id="qeE2tE1I2EDo8bNzyss_-27" value="Se valida que los campos sean llenados correctamente" style="rounded=0;whiteSpace=wrap;html=1;" vertex="1" parent="1">
          <mxGeometry x="740" y="390" width="120" height="60" as="geometry" />
        </mxCell>
        <mxCell id="qeE2tE1I2EDo8bNzyss_-98" style="edgeStyle=orthogonalEdgeStyle;rounded=0;orthogonalLoop=1;jettySize=auto;html=1;exitX=0.5;exitY=1;exitDx=0;exitDy=0;entryX=1;entryY=0.5;entryDx=0;entryDy=0;" edge="1" parent="1" source="qeE2tE1I2EDo8bNzyss_-36" target="qeE2tE1I2EDo8bNzyss_-58">
          <mxGeometry relative="1" as="geometry" />
        </mxCell>
        <mxCell id="qeE2tE1I2EDo8bNzyss_-102" value="SI" style="edgeLabel;html=1;align=center;verticalAlign=middle;resizable=0;points=[];" connectable="0" vertex="1" parent="qeE2tE1I2EDo8bNzyss_-98">
          <mxGeometry x="0.7385" y="3" relative="1" as="geometry">
            <mxPoint x="1" as="offset" />
          </mxGeometry>
        </mxCell>
        <mxCell id="qeE2tE1I2EDo8bNzyss_-99" style="edgeStyle=orthogonalEdgeStyle;rounded=0;orthogonalLoop=1;jettySize=auto;html=1;exitX=0.5;exitY=1;exitDx=0;exitDy=0;entryX=1;entryY=0.5;entryDx=0;entryDy=0;" edge="1" parent="1" source="qeE2tE1I2EDo8bNzyss_-36" target="qeE2tE1I2EDo8bNzyss_-68">
          <mxGeometry relative="1" as="geometry" />
        </mxCell>
        <mxCell id="qeE2tE1I2EDo8bNzyss_-103" value="SI" style="edgeLabel;html=1;align=center;verticalAlign=middle;resizable=0;points=[];" connectable="0" vertex="1" parent="qeE2tE1I2EDo8bNzyss_-99">
          <mxGeometry x="0.7555" y="-3" relative="1" as="geometry">
            <mxPoint as="offset" />
          </mxGeometry>
        </mxCell>
        <mxCell id="qeE2tE1I2EDo8bNzyss_-100" style="edgeStyle=orthogonalEdgeStyle;rounded=0;orthogonalLoop=1;jettySize=auto;html=1;exitX=0.5;exitY=1;exitDx=0;exitDy=0;entryX=1;entryY=0.5;entryDx=0;entryDy=0;" edge="1" parent="1" source="qeE2tE1I2EDo8bNzyss_-36" target="qeE2tE1I2EDo8bNzyss_-66">
          <mxGeometry relative="1" as="geometry" />
        </mxCell>
        <mxCell id="qeE2tE1I2EDo8bNzyss_-104" value="SI" style="edgeLabel;html=1;align=center;verticalAlign=middle;resizable=0;points=[];" connectable="0" vertex="1" parent="qeE2tE1I2EDo8bNzyss_-100">
          <mxGeometry x="0.7714" y="-2" relative="1" as="geometry">
            <mxPoint x="1" as="offset" />
          </mxGeometry>
        </mxCell>
        <mxCell id="qeE2tE1I2EDo8bNzyss_-101" style="edgeStyle=orthogonalEdgeStyle;rounded=0;orthogonalLoop=1;jettySize=auto;html=1;exitX=1;exitY=0.5;exitDx=0;exitDy=0;entryX=1;entryY=0.5;entryDx=0;entryDy=0;" edge="1" parent="1" source="qeE2tE1I2EDo8bNzyss_-36" target="qeE2tE1I2EDo8bNzyss_-78">
          <mxGeometry relative="1" as="geometry">
            <Array as="points">
              <mxPoint x="1320" y="795" />
              <mxPoint x="1320" y="1240" />
            </Array>
          </mxGeometry>
        </mxCell>
        <mxCell id="qeE2tE1I2EDo8bNzyss_-105" value="NO" style="edgeLabel;html=1;align=center;verticalAlign=middle;resizable=0;points=[];" connectable="0" vertex="1" parent="qeE2tE1I2EDo8bNzyss_-101">
          <mxGeometry x="0.8036" y="-3" relative="1" as="geometry">
            <mxPoint as="offset" />
          </mxGeometry>
        </mxCell>
        <mxCell id="qeE2tE1I2EDo8bNzyss_-36" value="¿Los datos se guardan?" style="rhombus;whiteSpace=wrap;html=1;" vertex="1" parent="1">
          <mxGeometry x="1231" y="750" width="85" height="90" as="geometry" />
        </mxCell>
        <mxCell id="qeE2tE1I2EDo8bNzyss_-37" style="edgeStyle=orthogonalEdgeStyle;rounded=0;orthogonalLoop=1;jettySize=auto;html=1;exitX=1;exitY=0.5;exitDx=0;exitDy=0;entryX=0;entryY=0.5;entryDx=0;entryDy=0;" edge="1" parent="1" source="qeE2tE1I2EDo8bNzyss_-38" target="qeE2tE1I2EDo8bNzyss_-44">
          <mxGeometry relative="1" as="geometry" />
        </mxCell>
        <mxCell id="qeE2tE1I2EDo8bNzyss_-38" value="Opción de &quot;Búsqueda por filtros&quot;" style="rounded=0;whiteSpace=wrap;html=1;" vertex="1" parent="1">
          <mxGeometry x="390" y="470" width="120" height="60" as="geometry" />
        </mxCell>
        <mxCell id="qeE2tE1I2EDo8bNzyss_-39" style="edgeStyle=orthogonalEdgeStyle;rounded=0;orthogonalLoop=1;jettySize=auto;html=1;exitX=1;exitY=0.5;exitDx=0;exitDy=0;entryX=0;entryY=0.5;entryDx=0;entryDy=0;" edge="1" parent="1" source="qeE2tE1I2EDo8bNzyss_-40" target="qeE2tE1I2EDo8bNzyss_-44">
          <mxGeometry relative="1" as="geometry" />
        </mxCell>
        <mxCell id="qeE2tE1I2EDo8bNzyss_-40" value="Opción de &quot;Ver gráficos&quot;" style="rounded=0;whiteSpace=wrap;html=1;" vertex="1" parent="1">
          <mxGeometry x="390" y="390" width="120" height="60" as="geometry" />
        </mxCell>
        <mxCell id="qeE2tE1I2EDo8bNzyss_-88" style="edgeStyle=orthogonalEdgeStyle;rounded=0;orthogonalLoop=1;jettySize=auto;html=1;exitX=1;exitY=0.5;exitDx=0;exitDy=0;entryX=0;entryY=0.5;entryDx=0;entryDy=0;" edge="1" parent="1" source="qeE2tE1I2EDo8bNzyss_-42" target="qeE2tE1I2EDo8bNzyss_-87">
          <mxGeometry relative="1" as="geometry" />
        </mxCell>
        <mxCell id="qeE2tE1I2EDo8bNzyss_-42" value="Opción de &quot;Reportes que lleguen al correo electrónico&quot;" style="rounded=0;whiteSpace=wrap;html=1;" vertex="1" parent="1">
          <mxGeometry x="390" y="550" width="120" height="60" as="geometry" />
        </mxCell>
        <mxCell id="qeE2tE1I2EDo8bNzyss_-43" style="edgeStyle=orthogonalEdgeStyle;rounded=0;orthogonalLoop=1;jettySize=auto;html=1;exitX=1;exitY=0.5;exitDx=0;exitDy=0;entryX=0;entryY=0.5;entryDx=0;entryDy=0;" edge="1" parent="1" source="qeE2tE1I2EDo8bNzyss_-44" target="qeE2tE1I2EDo8bNzyss_-27">
          <mxGeometry relative="1" as="geometry" />
        </mxCell>
        <mxCell id="qeE2tE1I2EDo8bNzyss_-44" value="Llenar formulario" style="rounded=0;whiteSpace=wrap;html=1;" vertex="1" parent="1">
          <mxGeometry x="570" y="390" width="120" height="60" as="geometry" />
        </mxCell>
        <mxCell id="qeE2tE1I2EDo8bNzyss_-45" style="edgeStyle=orthogonalEdgeStyle;rounded=0;orthogonalLoop=1;jettySize=auto;html=1;exitX=1;exitY=0.5;exitDx=0;exitDy=0;entryX=0;entryY=0.5;entryDx=0;entryDy=0;" edge="1" parent="1" source="qeE2tE1I2EDo8bNzyss_-46" target="qeE2tE1I2EDo8bNzyss_-24">
          <mxGeometry relative="1" as="geometry" />
        </mxCell>
        <mxCell id="qeE2tE1I2EDo8bNzyss_-94" style="edgeStyle=orthogonalEdgeStyle;rounded=0;orthogonalLoop=1;jettySize=auto;html=1;exitX=0.5;exitY=1;exitDx=0;exitDy=0;entryX=0;entryY=0.5;entryDx=0;entryDy=0;" edge="1" parent="1" source="qeE2tE1I2EDo8bNzyss_-46" target="qeE2tE1I2EDo8bNzyss_-93">
          <mxGeometry relative="1" as="geometry" />
        </mxCell>
        <mxCell id="qeE2tE1I2EDo8bNzyss_-46" value="Enviar datos&amp;nbsp;" style="rounded=0;whiteSpace=wrap;html=1;" vertex="1" parent="1">
          <mxGeometry x="900" y="390" width="120" height="60" as="geometry" />
        </mxCell>
        <mxCell id="qeE2tE1I2EDo8bNzyss_-55" style="edgeStyle=orthogonalEdgeStyle;rounded=0;orthogonalLoop=1;jettySize=auto;html=1;exitX=0.5;exitY=1;exitDx=0;exitDy=0;entryX=1;entryY=0.5;entryDx=0;entryDy=0;" edge="1" parent="1" source="qeE2tE1I2EDo8bNzyss_-57" target="qeE2tE1I2EDo8bNzyss_-76">
          <mxGeometry relative="1" as="geometry" />
        </mxCell>
        <mxCell id="qeE2tE1I2EDo8bNzyss_-56" value="NO" style="edgeLabel;html=1;align=center;verticalAlign=middle;resizable=0;points=[];" connectable="0" vertex="1" parent="qeE2tE1I2EDo8bNzyss_-55">
          <mxGeometry x="0.8493" y="-1" relative="1" as="geometry">
            <mxPoint x="1" as="offset" />
          </mxGeometry>
        </mxCell>
        <mxCell id="qeE2tE1I2EDo8bNzyss_-96" style="edgeStyle=orthogonalEdgeStyle;rounded=0;orthogonalLoop=1;jettySize=auto;html=1;exitX=0;exitY=0.5;exitDx=0;exitDy=0;" edge="1" parent="1" source="qeE2tE1I2EDo8bNzyss_-57" target="qeE2tE1I2EDo8bNzyss_-60">
          <mxGeometry relative="1" as="geometry" />
        </mxCell>
        <mxCell id="qeE2tE1I2EDo8bNzyss_-97" value="SI" style="edgeLabel;html=1;align=center;verticalAlign=middle;resizable=0;points=[];" connectable="0" vertex="1" parent="qeE2tE1I2EDo8bNzyss_-96">
          <mxGeometry x="0.2015" y="-2" relative="1" as="geometry">
            <mxPoint as="offset" />
          </mxGeometry>
        </mxCell>
        <mxCell id="qeE2tE1I2EDo8bNzyss_-57" value="¿Los datos se envían correctamente?" style="rhombus;whiteSpace=wrap;html=1;" vertex="1" parent="1">
          <mxGeometry x="1075" y="610" width="130" height="130" as="geometry" />
        </mxCell>
        <mxCell id="qeE2tE1I2EDo8bNzyss_-113" style="edgeStyle=orthogonalEdgeStyle;rounded=0;orthogonalLoop=1;jettySize=auto;html=1;exitX=0;exitY=0.5;exitDx=0;exitDy=0;entryX=1;entryY=0.5;entryDx=0;entryDy=0;" edge="1" parent="1" source="qeE2tE1I2EDo8bNzyss_-58" target="qeE2tE1I2EDo8bNzyss_-63">
          <mxGeometry relative="1" as="geometry" />
        </mxCell>
        <mxCell id="qeE2tE1I2EDo8bNzyss_-58" value="Se muestra la búsqueda por filtro" style="rounded=0;whiteSpace=wrap;html=1;" vertex="1" parent="1">
          <mxGeometry x="580" y="940" width="120" height="60" as="geometry" />
        </mxCell>
        <mxCell id="qeE2tE1I2EDo8bNzyss_-107" style="edgeStyle=orthogonalEdgeStyle;rounded=0;orthogonalLoop=1;jettySize=auto;html=1;exitX=0;exitY=0.5;exitDx=0;exitDy=0;entryX=1;entryY=0.5;entryDx=0;entryDy=0;" edge="1" parent="1" source="qeE2tE1I2EDo8bNzyss_-60" target="qeE2tE1I2EDo8bNzyss_-106">
          <mxGeometry relative="1" as="geometry" />
        </mxCell>
        <mxCell id="qeE2tE1I2EDo8bNzyss_-60" value="Generar el grafico solicitado" style="rounded=0;whiteSpace=wrap;html=1;" vertex="1" parent="1">
          <mxGeometry x="827" y="750" width="120" height="60" as="geometry" />
        </mxCell>
        <mxCell id="qeE2tE1I2EDo8bNzyss_-63" value="Cerrar Sesión&amp;nbsp;" style="rounded=0;whiteSpace=wrap;html=1;" vertex="1" parent="1">
          <mxGeometry x="225" y="1000" width="120" height="60" as="geometry" />
        </mxCell>
        <mxCell id="qeE2tE1I2EDo8bNzyss_-64" style="edgeStyle=orthogonalEdgeStyle;rounded=0;orthogonalLoop=1;jettySize=auto;html=1;exitX=0;exitY=0.5;exitDx=0;exitDy=0;entryX=1;entryY=0.5;entryDx=0;entryDy=0;entryPerimeter=0;" edge="1" parent="1" source="qeE2tE1I2EDo8bNzyss_-63" target="qeE2tE1I2EDo8bNzyss_-10">
          <mxGeometry relative="1" as="geometry" />
        </mxCell>
        <mxCell id="qeE2tE1I2EDo8bNzyss_-115" style="edgeStyle=orthogonalEdgeStyle;rounded=0;orthogonalLoop=1;jettySize=auto;html=1;exitX=0;exitY=0.5;exitDx=0;exitDy=0;entryX=1;entryY=0.5;entryDx=0;entryDy=0;" edge="1" parent="1" source="qeE2tE1I2EDo8bNzyss_-66" target="qeE2tE1I2EDo8bNzyss_-63">
          <mxGeometry relative="1" as="geometry" />
        </mxCell>
        <mxCell id="qeE2tE1I2EDo8bNzyss_-66" value="Se ha creado la alarma de stock critico con éxito" style="rounded=0;whiteSpace=wrap;html=1;" vertex="1" parent="1">
          <mxGeometry x="580" y="1120" width="120" height="60" as="geometry" />
        </mxCell>
        <mxCell id="qeE2tE1I2EDo8bNzyss_-67" style="edgeStyle=orthogonalEdgeStyle;rounded=0;orthogonalLoop=1;jettySize=auto;html=1;exitX=0.5;exitY=1;exitDx=0;exitDy=0;" edge="1" parent="1" source="qeE2tE1I2EDo8bNzyss_-36" target="qeE2tE1I2EDo8bNzyss_-36">
          <mxGeometry relative="1" as="geometry" />
        </mxCell>
        <mxCell id="qeE2tE1I2EDo8bNzyss_-114" style="edgeStyle=orthogonalEdgeStyle;rounded=0;orthogonalLoop=1;jettySize=auto;html=1;exitX=0;exitY=0.5;exitDx=0;exitDy=0;entryX=1;entryY=0.5;entryDx=0;entryDy=0;" edge="1" parent="1" source="qeE2tE1I2EDo8bNzyss_-68" target="qeE2tE1I2EDo8bNzyss_-63">
          <mxGeometry relative="1" as="geometry" />
        </mxCell>
        <mxCell id="qeE2tE1I2EDo8bNzyss_-68" value="Mensaje&quot; se ha enviado el reporte al correo electrónico&quot;" style="rounded=0;whiteSpace=wrap;html=1;" vertex="1" parent="1">
          <mxGeometry x="580" y="1030" width="120" height="60" as="geometry" />
        </mxCell>
        <mxCell id="qeE2tE1I2EDo8bNzyss_-90" style="edgeStyle=orthogonalEdgeStyle;rounded=0;orthogonalLoop=1;jettySize=auto;html=1;exitX=1;exitY=0.5;exitDx=0;exitDy=0;" edge="1" parent="1" source="qeE2tE1I2EDo8bNzyss_-70" target="qeE2tE1I2EDo8bNzyss_-89">
          <mxGeometry relative="1" as="geometry" />
        </mxCell>
        <mxCell id="qeE2tE1I2EDo8bNzyss_-70" value="Opción de &quot;Crear alarma para niveles de stock&quot;" style="rounded=0;whiteSpace=wrap;html=1;" vertex="1" parent="1">
          <mxGeometry x="390" y="660" width="120" height="60" as="geometry" />
        </mxCell>
        <mxCell id="qeE2tE1I2EDo8bNzyss_-111" style="edgeStyle=orthogonalEdgeStyle;rounded=0;orthogonalLoop=1;jettySize=auto;html=1;exitX=0;exitY=0.5;exitDx=0;exitDy=0;entryX=1;entryY=0.5;entryDx=0;entryDy=0;" edge="1" parent="1" source="qeE2tE1I2EDo8bNzyss_-76" target="qeE2tE1I2EDo8bNzyss_-63">
          <mxGeometry relative="1" as="geometry" />
        </mxCell>
        <mxCell id="qeE2tE1I2EDo8bNzyss_-76" value="Error no se pudo desplegar el grafico&amp;nbsp;" style="rounded=0;whiteSpace=wrap;html=1;" vertex="1" parent="1">
          <mxGeometry x="580" y="850" width="120" height="60" as="geometry" />
        </mxCell>
        <mxCell id="qeE2tE1I2EDo8bNzyss_-116" style="edgeStyle=orthogonalEdgeStyle;rounded=0;orthogonalLoop=1;jettySize=auto;html=1;exitX=0;exitY=0.5;exitDx=0;exitDy=0;entryX=1;entryY=0.5;entryDx=0;entryDy=0;" edge="1" parent="1" source="qeE2tE1I2EDo8bNzyss_-78" target="qeE2tE1I2EDo8bNzyss_-63">
          <mxGeometry relative="1" as="geometry" />
        </mxCell>
        <mxCell id="qeE2tE1I2EDo8bNzyss_-78" value="Error" style="rounded=0;whiteSpace=wrap;html=1;" vertex="1" parent="1">
          <mxGeometry x="580" y="1210" width="120" height="60" as="geometry" />
        </mxCell>
        <mxCell id="qeE2tE1I2EDo8bNzyss_-91" style="edgeStyle=orthogonalEdgeStyle;rounded=0;orthogonalLoop=1;jettySize=auto;html=1;exitX=1;exitY=0.5;exitDx=0;exitDy=0;entryX=0.5;entryY=1;entryDx=0;entryDy=0;" edge="1" parent="1" source="qeE2tE1I2EDo8bNzyss_-87" target="qeE2tE1I2EDo8bNzyss_-27">
          <mxGeometry relative="1" as="geometry" />
        </mxCell>
        <mxCell id="qeE2tE1I2EDo8bNzyss_-87" value="Añadir correo electrónico" style="rounded=0;whiteSpace=wrap;html=1;" vertex="1" parent="1">
          <mxGeometry x="570" y="550" width="120" height="60" as="geometry" />
        </mxCell>
        <mxCell id="qeE2tE1I2EDo8bNzyss_-92" style="edgeStyle=orthogonalEdgeStyle;rounded=0;orthogonalLoop=1;jettySize=auto;html=1;exitX=1;exitY=0.5;exitDx=0;exitDy=0;" edge="1" parent="1" source="qeE2tE1I2EDo8bNzyss_-89">
          <mxGeometry relative="1" as="geometry">
            <mxPoint x="800" y="450" as="targetPoint" />
          </mxGeometry>
        </mxCell>
        <mxCell id="qeE2tE1I2EDo8bNzyss_-89" value="Agregar parámetros y el stock a seleccionar" style="rounded=0;whiteSpace=wrap;html=1;" vertex="1" parent="1">
          <mxGeometry x="570" y="660" width="120" height="60" as="geometry" />
        </mxCell>
        <mxCell id="qeE2tE1I2EDo8bNzyss_-93" value="Recolectar datos datos&amp;nbsp;" style="rounded=0;whiteSpace=wrap;html=1;" vertex="1" parent="1">
          <mxGeometry x="1080" y="500" width="120" height="60" as="geometry" />
        </mxCell>
        <mxCell id="qeE2tE1I2EDo8bNzyss_-109" style="edgeStyle=orthogonalEdgeStyle;rounded=0;orthogonalLoop=1;jettySize=auto;html=1;exitX=0;exitY=0.5;exitDx=0;exitDy=0;entryX=1;entryY=0.5;entryDx=0;entryDy=0;" edge="1" parent="1" source="qeE2tE1I2EDo8bNzyss_-106" target="qeE2tE1I2EDo8bNzyss_-63">
          <mxGeometry relative="1" as="geometry" />
        </mxCell>
        <mxCell id="qeE2tE1I2EDo8bNzyss_-106" value="Se muestra el grafico&amp;nbsp;" style="rounded=0;whiteSpace=wrap;html=1;" vertex="1" parent="1">
          <mxGeometry x="580" y="750" width="120" height="60" as="geometry" />
        </mxCell>
      </root>
    </mxGraphModel>
  </diagram>
</mxfile>
